<svg width="480" height="481" viewBox="0 0 480 481" fill="none" xmlns="http://www.w3.org/2000/svg">
<path d="M240 432.14C346.039 432.14 432 346.179 432 240.14C432 134.101 346.039 48.14 240 48.14C133.961 48.14 48 134.101 48 240.14C48 346.179 133.961 432.14 240 432.14Z" fill="#E0F2FE"/>
<path d="M232 128.14H168C163.582 128.14 160 131.722 160 136.14V200.14C160 204.558 163.582 208.14 168 208.14H232C236.418 208.14 240 204.558 240 200.14V136.14C240 131.722 236.418 128.14 232 128.14Z" fill="#0EA5E9"/>
<path d="M328 128.14H264C259.582 128.14 256 131.722 256 136.14V200.14C256 204.558 259.582 208.14 264 208.14H328C332.418 208.14 336 204.558 336 200.14V136.14C336 131.722 332.418 128.14 328 128.14Z" fill="#10B981"/>
<path d="M184 224.14H120C115.582 224.14 112 227.722 112 232.14V296.14C112 300.558 115.582 304.14 120 304.14H184C188.418 304.14 192 300.558 192 296.14V232.14C192 227.722 188.418 224.14 184 224.14Z" fill="#8B5CF6"/>
<path d="M280 224.14H216C211.582 224.14 208 227.722 208 232.14V296.14C208 300.558 211.582 304.14 216 304.14H280C284.418 304.14 288 300.558 288 296.14V232.14C288 227.722 284.418 224.14 280 224.14Z" fill="#F59E0B"/>
<path d="M376 224.14H312C307.582 224.14 304 227.722 304 232.14V296.14C304 300.558 307.582 304.14 312 304.14H376C380.418 304.14 384 300.558 384 296.14V232.14C384 227.722 380.418 224.14 376 224.14Z" fill="#EF4444"/>
<path d="M232 320.14H168C163.582 320.14 160 323.722 160 328.14V392.14C160 396.558 163.582 400.14 168 400.14H232C236.418 400.14 240 396.558 240 392.14V328.14C240 323.722 236.418 320.14 232 320.14Z" fill="#14B8A6"/>
<path d="M328 320.14H264C259.582 320.14 256 323.722 256 328.14V392.14C256 396.558 259.582 400.14 264 400.14H328C332.418 400.14 336 396.558 336 392.14V328.14C336 323.722 332.418 320.14 328 320.14Z" fill="#6366F1"/>
<path d="M200 208.14V224.14" stroke="#0369A1" stroke-width="4.8"/>
<path d="M296 208.14V224.14" stroke="#0369A1" stroke-width="4.8"/>
<path d="M152 304.14V320.14" stroke="#0369A1" stroke-width="4.8"/>
<path d="M248 304.14V320.14" stroke="#0369A1" stroke-width="4.8"/>
<path d="M344 304.14V320.14" stroke="#0369A1" stroke-width="4.8"/>
<path d="M200 184.14C208.837 184.14 216 176.977 216 168.14C216 159.303 208.837 152.14 200 152.14C191.163 152.14 184 159.303 184 168.14C184 176.977 191.163 184.14 200 184.14Z" fill="#E0F2FE"/>
<path d="M296 184.14C304.837 184.14 312 176.977 312 168.14C312 159.303 304.837 152.14 296 152.14C287.163 152.14 280 159.303 280 168.14C280 176.977 287.163 184.14 296 184.14Z" fill="#E0F2FE"/>
<path d="M152 280.14C160.837 280.14 168 272.977 168 264.14C168 255.303 160.837 248.14 152 248.14C143.163 248.14 136 255.303 136 264.14C136 272.977 143.163 280.14 152 280.14Z" fill="#E0F2FE"/>
<path d="M248 280.14C256.837 280.14 264 272.977 264 264.14C264 255.303 256.837 248.14 248 248.14C239.163 248.14 232 255.303 232 264.14C232 272.977 239.163 280.14 248 280.14Z" fill="#E0F2FE"/>
<path d="M344 280.14C352.837 280.14 360 272.977 360 264.14C360 255.303 352.837 248.14 344 248.14C335.163 248.14 328 255.303 328 264.14C328 272.977 335.163 280.14 344 280.14Z" fill="#E0F2FE"/>
<path d="M200 376.14C208.837 376.14 216 368.977 216 360.14C216 351.303 208.837 344.14 200 344.14C191.163 344.14 184 351.303 184 360.14C184 368.977 191.163 376.14 200 376.14Z" fill="#E0F2FE"/>
<path d="M296 376.14C304.837 376.14 312 368.977 312 360.14C312 351.303 304.837 344.14 296 344.14C287.163 344.14 280 351.303 280 360.14C280 368.977 287.163 376.14 296 376.14Z" fill="#E0F2FE"/>
<path opacity="0.6" d="M80 152.14C93.2548 152.14 104 141.395 104 128.14C104 114.885 93.2548 104.14 80 104.14C66.7452 104.14 56 114.885 56 128.14C56 141.395 66.7452 152.14 80 152.14Z" fill="#10B981"/>
<path opacity="0.6" d="M400 192.14C417.673 192.14 432 177.813 432 160.14C432 142.467 417.673 128.14 400 128.14C382.327 128.14 368 142.467 368 160.14C368 177.813 382.327 192.14 400 192.14Z" fill="#0EA5E9"/>
<path opacity="0.6" d="M368 408.14C381.255 408.14 392 397.395 392 384.14C392 370.885 381.255 360.14 368 360.14C354.745 360.14 344 370.885 344 384.14C344 397.395 354.745 408.14 368 408.14Z" fill="#F59E0B"/>
<path opacity="0.6" d="M96 380.94C111.906 380.94 124.8 368.046 124.8 352.14C124.8 336.234 111.906 323.34 96 323.34C80.0941 323.34 67.2 336.234 67.2 352.14C67.2 368.046 80.0941 380.94 96 380.94Z" fill="#8B5CF6"/>
</svg>
